<svg width="440" height="460" viewBox="0 0 440 460" fill="none" xmlns="http://www.w3.org/2000/svg">
<g clip-path="url(#clip0_1_7)">
<rect width="440" height="460" fill="white"/>
<rect width="1443" height="605" fill="white"/>
<path fill-rule="evenodd" clip-rule="evenodd" d="M123.796 298.816L123.743 299.715L123.721 300.612L123.73 301.511L123.769 302.412L123.839 303.317L123.937 304.226L124.065 305.141L124.22 306.063L124.402 306.993L124.609 307.932L124.839 308.881L125.091 309.841L125.364 310.813L125.656 311.796L125.965 312.793L126.289 313.803L126.627 314.828L126.977 315.866L127.337 316.92L127.705 317.988L128.08 319.072L128.46 320.171L128.844 321.286L129.228 322.416L129.613 323.562L129.995 324.723L130.374 325.899L130.747 327.091L131.114 328.296L131.472 329.516L131.819 330.75L132.155 331.997L132.478 333.257L132.787 334.529L133.08 335.812L133.356 337.107L133.615 338.412L133.854 339.727L134.073 341.051L134.271 342.383L134.448 343.723L134.601 345.07L134.731 346.422L134.836 347.781L134.917 349.143L134.971 350.509L134.999 351.878L135 353.249L134.973 354.62L134.919 355.992L134.836 357.363L134.724 358.733L134.583 360.099L134.413 361.463L134.213 362.822L133.984 364.177L133.726 365.526L133.438 366.868L133.12 368.203L132.773 369.53L132.397 370.848L131.991 372.157L131.557 373.457L131.095 374.745L130.604 376.023L130.086 377.289L129.541 378.543L128.969 379.785L128.37 381.014L127.746 382.23L127.096 383.432L126.422 384.621L125.724 385.795L125.002 386.955L124.258 388.101L123.49 389.233L122.702 390.35L121.892 391.452L121.061 392.539L120.211 393.612L119.342 394.67L118.453 395.713L117.547 396.742L116.622 397.755L115.681 398.754L114.723 399.739L113.749 400.708L112.76 401.664L111.755 402.604L110.735 403.53L109.702 404.442L108.654 405.339L107.592 406.222L106.518 407.091L105.43 407.944L104.33 408.784L103.217 409.608L102.093 410.418L100.956 411.213L99.8079 411.992L98.6482 412.756L97.4773 413.505L96.2953 414.238L95.1024 414.954L93.8988 415.654L92.6847 416.337L91.4602 417.003L90.2255 417.651L88.9805 418.28L87.7254 418.89L86.4602 419.479L85.185 420.047L83.8998 420.591L82.6046 421.112L81.2996 421.606L79.9849 422.074L78.6608 422.513L77.3274 422.921L75.9851 423.298L74.6343 423.641L73.2753 423.949L71.9087 424.221L70.5351 424.454L69.1551 424.648L67.7694 424.801L66.3788 424.911L64.9841 424.978L63.5863 425L62.1864 424.976L60.7854 424.905L59.3843 424.787L57.9843 424.62L56.5866 424.404L55.1923 424.139L53.8027 423.825L52.4191 423.46L51.0427 423.045L49.6747 422.58L48.3166 422.066L46.9695 421.502L45.6347 420.89L44.3135 420.229L43.0072 419.52L41.7169 418.765L40.4438 417.964L39.189 417.118L37.9536 416.23L36.7387 415.299L35.5452 414.329L34.374 413.319L33.2261 412.273L32.102 411.192L31.0026 410.078L29.9284 408.932L28.8799 407.758L27.8577 406.557L26.8619 405.331L25.8929 404.084L24.9508 402.816L24.0357 401.531L23.1475 400.232L22.286 398.919L21.451 397.597L20.6422 396.267L19.8591 394.932L19.1012 393.594L18.3679 392.256L17.6584 390.92L16.9719 389.588L16.3075 388.263L15.6644 386.947L15.0413 385.642L14.4373 384.35L13.8511 383.073L13.2816 381.813L12.7273 380.571L12.1871 379.351L11.6595 378.152L11.143 376.976L10.6364 375.825L10.1382 374.7L9.64676 373.602L9.16079 372.532L8.67879 371.49L8.19932 370.478L7.72095 369.496L7.24229 368.543L6.76197 367.622L6.27867 366.73L5.79112 365.869L5.2981 365.039L4.79846 364.238L4.29112 363.467L3.77504 362.725L3.24932 362.012L2.71308 361.325L2.16558 360.666L1.60613 360.031L1.03419 359.422L0.449254 358.835L-0.149033 358.271L-0.760941 357.727L-1.38662 357.202L-2.02609 356.694L-2.67927 356.203L-3.34596 355.726L-4.02587 355.262L-4.71857 354.809L-5.42358 354.365L-6.14027 353.929L-6.86798 353.499L-7.60595 353.073L-8.35334 352.649L-9.10926 352.227L-9.87276 351.804L-10.6429 351.38L-11.4186 350.952L-12.1988 350.519L-12.9825 350.081L-13.7687 349.635L-14.5563 349.182L-15.3444 348.719L-16.1319 348.247L-16.918 347.764L-17.7019 347.271L-18.4828 346.765L-19.2601 346.248L-20.0332 345.718L-20.8015 345.176L-21.5644 344.622L-22.3214 344.054L-23.0719 343.474L-23.8154 342.88L-24.5513 342.273L-25.2792 341.653L-25.9984 341.019L-26.7085 340.373L-27.409 339.713L-28.0994 339.039L-28.7791 338.353L-29.4478 337.653L-30.1049 336.94L-30.7499 336.214L-31.3824 335.476L-32.0019 334.725L-32.6078 333.961L-33.1997 333.185L-33.7771 332.397L-34.3396 331.597L-34.8865 330.785L-35.4174 329.962L-35.9319 329.127L-36.4293 328.282L-36.9091 327.426L-37.3709 326.559L-37.8141 325.682L-38.2381 324.795L-38.6424 323.899L-39.0265 322.994L-39.3898 322.08L-39.7317 321.157L-40.0518 320.227L-40.3494 319.289L-40.6241 318.344L-40.8753 317.392L-41.1025 316.434L-41.3052 315.47L-41.4829 314.502L-41.6352 313.529L-41.7615 312.552L-41.8615 311.571L-41.9349 310.588L-41.9811 309.603L-42 308.616L-41.9912 307.628L-41.9546 306.64L-41.8898 305.653L-41.7969 304.667L-41.6757 303.683L-41.5261 302.701L-41.3483 301.723L-41.1423 300.749L-40.9083 299.78L-40.6465 298.816L-40.3573 297.859L-40.041 296.909L-39.6981 295.966L-39.329 295.031L-38.9345 294.105L-38.5152 293.189L-38.0719 292.283L-37.6053 291.387L-37.1165 290.502L-36.6063 289.629L-36.076 288.768L-35.5265 287.919L-34.959 287.083L-34.3746 286.26L-33.7742 285.45L-33.1589 284.653L-32.5296 283.869L-31.8872 283.1L-31.2326 282.344L-30.5667 281.601L-29.8903 280.873L-29.2043 280.159L-28.5096 279.459L-27.8068 278.772L-27.097 278.1L-26.3809 277.441L-25.6593 276.796L-24.9331 276.164L-24.203 275.546L-23.4699 274.941L-22.7347 274.349L-21.998 273.769L-21.2606 273.201L-20.5233 272.645L-19.7869 272.101L-19.052 271.568L-18.3193 271.045L-17.5893 270.533L-16.8628 270.031L-16.1404 269.539L-15.4227 269.055L-14.7103 268.579L-14.0039 268.111L-13.3043 267.651L-12.6119 267.196L-11.9275 266.748L-11.2518 266.304L-10.5853 265.865L-9.92871 265.429L-9.28257 264.995L-8.64748 264.563L-8.02399 264.132L-7.41261 263.7L-6.81383 263.267L-6.22809 262.832L-5.65581 262.394L-5.09733 261.952L-4.55299 261.504L-4.02304 261.05L-3.50769 260.589L-3.00709 260.119L-2.52135 259.64L-2.05051 259.15L-1.59453 258.649L-1.15335 258.136L-0.726789 257.609L-0.31466 257.068L0.0833263 256.512L0.467511 255.94L0.838296 255.351L1.19614 254.744L1.54159 254.119L1.87523 253.475L2.19771 252.812L2.50974 252.128L2.81206 251.424L3.10551 250.698L3.39092 249.951L3.66922 249.182L3.94135 248.392L4.20828 247.579L4.47104 246.744L4.73068 245.887L4.98827 245.008L5.2449 244.108L5.5017 243.185L5.75978 242.242L6.02027 241.277L6.28433 240.292L6.55309 239.287L6.82766 238.263L7.10921 237.22L7.3988 236.16L7.69757 235.082L8.00656 233.988L8.32684 232.879L8.65943 231.755L9.00529 230.618L9.36541 229.469L9.74069 228.308L10.132 227.138L10.5402 225.958L10.9661 224.771L11.4103 223.577L11.8737 222.379L12.3569 221.176L12.8604 219.97L13.3849 218.763L13.9309 217.557L14.4991 216.352L15.0899 215.152L15.704 213.957L16.3417 212.77L17.0034 211.592L17.6895 210.427L18.4003 209.277L19.1358 208.143L19.8963 207.028L20.6817 205.934L21.492 204.864L22.327 203.821L23.1865 202.806L24.0701 201.822L24.9774 200.871L25.9078 199.957L26.8608 199.08L27.8356 198.244L28.8315 197.451L29.8474 196.704L30.8824 196.004L31.9355 195.353L33.0055 194.755L34.091 194.211L35.1908 193.723L36.3034 193.293L37.4273 192.922L38.5608 192.612L39.7023 192.365L40.8501 192.18L42.0024 192.058L43.1575 192L44.3135 192.006L45.4688 192.076L46.6214 192.209L47.7697 192.405L48.9119 192.662L50.0464 192.981L51.1714 193.359L52.2856 193.795L53.3873 194.287L54.4752 194.833L55.5481 195.432L56.6046 196.08L57.6439 196.775L58.6648 197.515L59.6665 198.297L60.6485 199.117L61.61 199.973L62.5507 200.862L63.4703 201.78L64.3688 202.724L65.246 203.69L66.1021 204.676L66.9375 205.678L67.7526 206.692L68.548 207.715L69.3244 208.744L70.0828 209.775L70.8239 210.805L71.5491 211.831L72.2595 212.849L72.9565 213.858L73.6414 214.853L74.3158 215.833L74.9813 216.794L75.6396 217.735L76.2924 218.652L76.9414 219.545L77.5886 220.41L78.2357 221.247L78.8846 222.054L79.5371 222.83L80.1952 223.573L80.8606 224.282L81.535 224.958L82.2204 225.599L82.9182 226.205L83.6303 226.777L84.358 227.314L85.1029 227.818L85.8662 228.287L86.6494 228.724L87.4533 229.13L88.2791 229.505L89.1276 229.851L89.9996 230.169L90.8955 230.461L91.8159 230.729L92.761 230.974L93.7309 231.199L94.7257 231.407L95.7449 231.598L96.7882 231.776L97.8548 231.944L98.9437 232.103L100.054 232.258L101.183 232.41L102.331 232.563L103.494 232.721L104.672 232.885L105.861 233.06L107.059 233.247L108.263 233.451L109.472 233.673L110.681 233.917L111.888 234.184L113.091 234.478L114.285 234.8L115.468 235.152L116.638 235.537L117.789 235.955L118.921 236.408L120.029 236.898L121.112 237.424L122.166 237.989L123.188 238.591L124.177 239.231L125.13 239.91L126.045 240.626L126.919 241.38L127.752 242.171L128.54 242.998L129.284 243.861L129.98 244.757L130.629 245.686L131.229 246.648L131.779 247.639L132.278 248.659L132.727 249.706L133.124 250.778L133.471 251.874L133.766 252.991L134.01 254.128L134.205 255.282L134.35 256.452L134.447 257.635L134.497 258.83L134.501 260.034L134.461 261.245L134.378 262.462L134.254 263.683L134.092 264.904L133.893 266.126L133.66 267.346L133.396 268.562L133.101 269.772L132.781 270.976L132.436 272.172L132.07 273.358L131.685 274.534L131.285 275.698L130.872 276.85L130.449 277.988L130.019 279.113L129.585 280.223L129.15 281.318L128.716 282.399L128.286 283.464L127.864 284.515L127.45 285.55L127.049 286.571L126.662 287.577L126.291 288.57L125.939 289.549L125.608 290.516L125.299 291.472L125.014 292.416L124.754 293.351L124.522 294.277L124.317 295.196L124.142 296.108L123.996 297.014L123.881 297.917L123.796 298.816Z" fill="url(#paint0_linear_1_7)"/>
<path fill-rule="evenodd" clip-rule="evenodd" d="M461.109 275.382V275.382L461.298 276.366L461.506 277.356L461.731 278.353L461.973 279.359L462.23 280.373L462.501 281.398L462.785 282.434L463.08 283.482L463.384 284.542L463.697 285.615L464.016 286.702L464.339 287.804L464.666 288.92L464.994 290.05L465.322 291.196L465.647 292.357L465.969 293.534L466.284 294.725L466.592 295.932L466.889 297.153L467.175 298.388L467.447 299.637L467.703 300.899L467.941 302.174L468.16 303.46L468.357 304.758L468.532 306.065L468.681 307.381L468.804 308.704L468.898 310.035L468.963 311.37L468.998 312.71L469 314.052L468.97 315.397L468.906 316.741L468.807 318.085L468.673 319.427L468.504 320.764L468.298 322.098L468.056 323.425L467.777 324.744L467.461 326.055L467.108 327.356L466.718 328.646L466.291 329.924L465.828 331.188L465.329 332.438L464.794 333.673L464.224 334.891L463.62 336.093L462.983 337.276L462.312 338.442L461.61 339.588L460.876 340.715L460.113 341.822L459.321 342.909L458.501 343.975L457.655 345.021L456.783 346.047L455.887 347.051L454.967 348.036L454.025 348.999L453.063 349.943L452.08 350.867L451.079 351.771L450.06 352.656L449.025 353.522L447.973 354.37L446.907 355.2L445.827 356.012L444.733 356.807L443.627 357.585L442.509 358.347L441.38 359.093L440.24 359.824L439.09 360.539L437.931 361.239L436.761 361.924L435.583 362.594L434.395 363.249L433.199 363.889L431.994 364.514L430.781 365.124L429.559 365.718L428.328 366.295L427.089 366.855L425.841 367.396L424.583 367.916L423.317 368.415L422.041 368.89L420.756 369.34L419.462 369.762L418.159 370.155L416.846 370.516L415.524 370.843L414.195 371.134L412.857 371.386L411.512 371.598L410.16 371.768L408.803 371.892L407.442 371.97L406.077 372L404.709 371.98L403.341 371.908L401.974 371.785L400.609 371.607L399.248 371.376L397.892 371.091L396.543 370.75L395.203 370.356L393.874 369.908L392.558 369.407L391.255 368.853L389.968 368.248L388.699 367.593L387.448 366.888L386.218 366.137L385.009 365.34L383.824 364.499L382.663 363.617L381.528 362.694L380.419 361.735L379.337 360.74L378.284 359.713L377.26 358.657L376.265 357.573L375.3 356.465L374.364 355.335L373.459 354.186L372.584 353.022L371.738 351.845L370.922 350.658L370.135 349.463L369.377 348.265L368.646 347.065L367.942 345.866L367.263 344.671L366.61 343.482L365.98 342.303L365.371 341.134L364.784 339.979L364.216 338.84L363.666 337.719L363.132 336.617L362.612 335.536L362.105 334.477L361.609 333.442L361.122 332.433L360.643 331.449L360.17 330.492L359.701 329.562L359.235 328.66L358.77 327.786L358.304 326.939L357.836 326.121L357.364 325.33L356.888 324.566L356.406 323.828L355.917 323.116L355.419 322.428L354.913 321.765L354.397 321.124L353.871 320.504L353.334 319.904L352.785 319.323L352.224 318.759L351.651 318.211L351.066 317.678L350.469 317.157L349.86 316.647L349.239 316.146L348.607 315.654L347.965 315.167L347.311 314.685L346.648 314.206L345.977 313.728L345.297 313.25L344.609 312.771L343.916 312.289L343.216 311.803L342.512 311.312L341.803 310.814L341.092 310.31L340.377 309.798L339.661 309.277L338.943 308.748L338.224 308.209L337.504 307.66L336.784 307.101L336.064 306.531L335.345 305.95L334.627 305.358L333.91 304.754L333.195 304.138L332.483 303.51L331.773 302.869L331.066 302.216L330.362 301.551L329.662 300.872L328.965 300.181L328.273 299.477L327.586 298.759L326.903 298.029L326.225 297.285L325.552 296.527L324.885 295.756L324.224 294.972L323.569 294.175L322.92 293.363L322.278 292.539L321.643 291.701L321.015 290.849L320.395 289.983L319.782 289.104L319.178 288.211L318.582 287.305L317.996 286.385L317.419 285.451L316.852 284.504L316.296 283.544L315.751 282.569L315.218 281.582L314.697 280.581L314.189 279.567L313.695 278.54L313.215 277.5L312.751 276.447L312.302 275.382L311.871 274.305L311.457 273.216L311.062 272.116L310.687 271.005L310.332 269.882L309.998 268.75L309.686 267.608L309.398 266.457L309.134 265.298L308.895 264.131L308.682 262.956L308.497 261.776L308.339 260.589L308.21 259.398L308.111 258.204L308.042 257.006L308.005 255.807L308 254.607L308.028 253.408L308.09 252.209L308.186 251.014L308.317 249.822L308.484 248.635L308.687 247.454L308.926 246.281L309.201 245.116L309.514 243.962L309.863 242.818L310.25 241.688L310.673 240.57L311.134 239.468L311.632 238.383L312.167 237.315L312.738 236.266L313.346 235.237L313.989 234.229L314.667 233.243L315.379 232.281L316.125 231.343L316.903 230.43L317.712 229.543L318.551 228.683L319.418 227.849L320.311 227.042L321.23 226.262L322.173 225.51L323.137 224.785L324.121 224.087L325.122 223.415L326.14 222.77L327.172 222.15L328.215 221.555L329.268 220.983L330.33 220.434L331.397 219.906L332.469 219.398L333.543 218.908L334.617 218.436L335.69 217.978L336.761 217.534L337.827 217.101L338.887 216.678L339.94 216.263L340.985 215.854L342.021 215.449L343.047 215.046L344.062 214.642L345.066 214.237L346.058 213.829L347.038 213.415L348.006 212.994L348.963 212.564L349.907 212.125L350.841 211.674L351.763 211.211L352.676 210.734L353.579 210.244L354.474 209.738L355.361 209.217L356.243 208.681L357.119 208.13L357.991 207.563L358.861 206.982L359.73 206.386L360.598 205.777L361.469 205.154L362.341 204.519L363.218 203.873L364.099 203.216L364.986 202.549L365.881 201.874L366.783 201.192L367.695 200.503L368.617 199.81L369.55 199.114L370.495 198.417L371.452 197.72L372.423 197.025L373.408 196.334L374.407 195.649L375.421 194.972L376.45 194.305L377.495 193.649L378.555 193.006L379.631 192.378L380.722 191.768L381.828 191.176L382.949 190.604L384.085 190.054L385.235 189.526L386.399 189.022L387.576 188.543L388.766 188.09L389.968 187.664L391.181 187.266L392.405 186.897L393.639 186.558L394.881 186.251L396.132 185.975L397.39 185.732L398.655 185.523L399.924 185.348L401.199 185.208L402.476 185.103L403.756 185.033L405.037 185L406.319 185.003L407.599 185.042L408.878 185.117L410.154 185.229L411.427 185.377L412.694 185.561L413.956 185.78L415.211 186.035L416.459 186.324L417.698 186.647L418.929 187.003L420.149 187.392L421.359 187.812L422.558 188.263L423.745 188.745L424.92 189.255L426.082 189.793L427.231 190.358L428.366 190.949L429.488 191.565L430.596 192.205L431.689 192.868L432.768 193.552L433.833 194.258L434.882 194.983L435.917 195.727L436.938 196.489L437.943 197.268L438.934 198.063L439.91 198.874L440.871 199.7L441.818 200.54L442.75 201.393L443.666 202.26L444.568 203.14L445.454 204.032L446.325 204.937L447.179 205.854L448.017 206.784L448.838 207.727L449.641 208.683L450.425 209.652L451.189 210.634L451.933 211.63L452.656 212.64L453.356 213.664L454.033 214.702L454.685 215.755L455.312 216.821L455.912 217.902L456.485 218.997L457.029 220.105L457.544 221.227L458.029 222.362L458.483 223.51L458.907 224.669L459.299 225.838L459.659 227.018L459.988 228.206L460.287 229.401L460.554 230.603L460.792 231.809L461 233.02L461.18 234.232L461.332 235.446L461.458 236.66L461.558 237.873L461.633 239.084L461.686 240.291L461.716 241.494L461.727 242.692L461.718 243.883L461.692 245.067L461.65 246.242L461.595 247.409L461.527 248.567L461.449 249.715L461.362 250.852L461.269 251.978L461.171 253.093L461.07 254.196L460.968 255.288L460.867 256.369L460.769 257.438L460.675 258.496L460.587 259.543L460.507 260.579L460.437 261.606L460.378 262.623L460.331 263.631L460.299 264.631L460.281 265.624L460.28 266.611L460.295 267.592L460.329 268.569L460.382 269.543L460.454 270.515L460.545 271.485L460.656 272.456L460.787 273.429L460.938 274.404L461.109 275.382" fill="#CD9703"/>
</g>
<defs>
<linearGradient id="paint0_linear_1_7" x1="46.5" y1="192" x2="46.5" y2="425" gradientUnits="userSpaceOnUse">
<stop stop-color="#3D47BA"/>
<stop offset="1" stop-color="#3B12A8"/>
</linearGradient>
<clipPath id="clip0_1_7">
<rect width="440" height="460" fill="white"/>
</clipPath>
</defs>
</svg>
