<svg width="1443" height="605" viewBox="0 0 1443 605" fill="none" xmlns="http://www.w3.org/2000/svg">
<rect width="1443" height="605" fill="#1E1E1E"/>
<g clip-path="url(#clip0_0_1)">
<rect width="1443" height="605" fill="white"/>
<rect width="1443" height="605" fill="white"/>
<path fill-rule="evenodd" clip-rule="evenodd" d="M1407.4 188.281V188.281L1407.76 190.146L1408.16 192.021L1408.58 193.911L1409.04 195.816L1409.53 197.739L1410.05 199.681L1410.58 201.644L1411.14 203.63L1411.72 205.639L1412.31 207.673L1412.92 209.733L1413.53 211.82L1414.15 213.935L1414.77 216.078L1415.4 218.25L1416.01 220.45L1416.62 222.679L1417.22 224.937L1417.8 227.223L1418.37 229.537L1418.91 231.878L1419.43 234.245L1419.91 236.637L1420.36 239.053L1420.78 241.491L1421.15 243.949L1421.48 246.426L1421.77 248.92L1422 251.428L1422.18 253.949L1422.3 256.48L1422.37 259.019L1422.37 261.564L1422.31 264.111L1422.19 266.659L1422.01 269.206L1421.75 271.748L1421.43 274.283L1421.04 276.81L1420.58 279.325L1420.05 281.825L1419.45 284.309L1418.78 286.775L1418.04 289.219L1417.23 291.64L1416.36 294.036L1415.41 296.405L1414.39 298.745L1413.31 301.054L1412.17 303.331L1410.96 305.575L1409.69 307.783L1408.35 309.955L1406.96 312.091L1405.52 314.189L1404.01 316.249L1402.46 318.27L1400.85 320.252L1399.2 322.195L1397.5 324.099L1395.76 325.964L1393.97 327.791L1392.14 329.579L1390.28 331.329L1388.38 333.043L1386.45 334.72L1384.48 336.361L1382.49 337.968L1380.47 339.54L1378.42 341.08L1376.34 342.586L1374.25 344.061L1372.13 345.505L1369.98 346.919L1367.82 348.303L1365.64 349.659L1363.44 350.985L1361.22 352.283L1358.99 353.553L1356.74 354.795L1354.47 356.008L1352.18 357.193L1349.88 358.348L1347.56 359.474L1345.23 360.568L1342.88 361.628L1340.51 362.653L1338.13 363.64L1335.72 364.585L1333.3 365.485L1330.87 366.338L1328.41 367.138L1325.94 367.882L1323.45 368.566L1320.94 369.186L1318.42 369.737L1315.88 370.215L1313.33 370.617L1310.77 370.938L1308.2 371.174L1305.61 371.322L1303.02 371.378L1300.43 371.34L1297.84 371.205L1295.24 370.97L1292.65 370.634L1290.07 370.196L1287.5 369.655L1284.94 369.01L1282.4 368.263L1279.88 367.414L1277.38 366.464L1274.91 365.414L1272.47 364.268L1270.06 363.026L1267.69 361.692L1265.36 360.268L1263.06 358.757L1260.82 357.164L1258.61 355.491L1256.46 353.743L1254.36 351.925L1252.31 350.04L1250.31 348.094L1248.37 346.092L1246.48 344.038L1244.65 341.938L1242.87 339.797L1241.16 337.62L1239.5 335.414L1237.89 333.183L1236.35 330.933L1234.85 328.67L1233.41 326.398L1232.03 324.124L1230.69 321.852L1229.41 319.587L1228.17 317.335L1226.97 315.1L1225.82 312.886L1224.7 310.697L1223.63 308.538L1222.58 306.413L1221.57 304.325L1220.58 302.276L1219.62 300.27L1218.68 298.309L1217.76 296.396L1216.85 294.531L1215.95 292.718L1215.06 290.956L1214.18 289.246L1213.3 287.589L1212.41 285.985L1211.52 284.434L1210.63 282.935L1209.73 281.487L1208.81 280.089L1207.88 278.74L1206.94 277.437L1205.98 276.179L1205 274.964L1204 273.789L1202.98 272.653L1201.94 271.552L1200.88 270.484L1199.79 269.445L1198.68 268.434L1197.55 267.447L1196.4 266.481L1195.22 265.532L1194.02 264.598L1192.8 263.676L1191.56 262.762L1190.31 261.854L1189.03 260.949L1187.74 260.043L1186.44 259.135L1185.12 258.221L1183.79 257.3L1182.46 256.369L1181.12 255.427L1179.77 254.471L1178.41 253.501L1177.05 252.515L1175.69 251.511L1174.33 250.49L1172.96 249.449L1171.6 248.39L1170.23 247.31L1168.87 246.209L1167.5 245.086L1166.14 243.942L1164.79 242.775L1163.44 241.584L1162.09 240.371L1160.75 239.134L1159.41 237.872L1158.09 236.587L1156.77 235.277L1155.45 233.942L1154.15 232.582L1152.85 231.197L1151.57 229.787L1150.29 228.352L1149.03 226.891L1147.77 225.405L1146.53 223.894L1145.3 222.357L1144.08 220.794L1142.88 219.205L1141.69 217.591L1140.51 215.951L1139.35 214.285L1138.2 212.593L1137.07 210.875L1135.96 209.132L1134.87 207.363L1133.79 205.568L1132.74 203.747L1131.7 201.901L1130.69 200.03L1129.7 198.133L1128.74 196.211L1127.8 194.265L1126.89 192.294L1126.01 190.299L1125.16 188.281L1124.34 186.24L1123.56 184.177L1122.81 182.091L1122.1 179.985L1121.42 177.858L1120.79 175.713L1120.2 173.549L1119.65 171.367L1119.15 169.17L1118.7 166.958L1118.29 164.733L1117.94 162.495L1117.64 160.247L1117.4 157.99L1117.21 155.727L1117.08 153.457L1117.01 151.185L1117 148.911L1117.05 146.637L1117.17 144.367L1117.35 142.101L1117.6 139.842L1117.92 137.593L1118.3 135.355L1118.76 133.132L1119.28 130.925L1119.87 128.737L1120.53 126.57L1121.27 124.427L1122.07 122.31L1122.94 120.222L1123.89 118.164L1124.9 116.14L1125.99 114.152L1127.14 112.202L1128.36 110.292L1129.65 108.425L1131 106.601L1132.41 104.824L1133.89 103.094L1135.42 101.413L1137.01 99.7816L1138.66 98.2011L1140.35 96.672L1142.09 95.1946L1143.88 93.769L1145.71 92.3951L1147.58 91.0724L1149.48 89.8001L1151.41 88.5772L1153.36 87.4025L1155.34 86.2743L1157.34 85.1908L1159.35 84.15L1161.38 83.1495L1163.41 82.1866L1165.45 81.2587L1167.49 80.3627L1169.52 79.4954L1171.55 78.6536L1173.57 77.8338L1175.58 77.0325L1177.58 76.2459L1179.56 75.4705L1181.53 74.7026L1183.47 73.9384L1185.4 73.1744L1187.3 72.407L1189.18 71.6327L1191.04 70.8482L1192.88 70.0505L1194.69 69.2365L1196.49 68.4036L1198.26 67.5493L1200.01 66.6716L1201.74 65.7684L1203.45 64.8384L1205.15 63.8804L1206.83 62.8936L1208.5 61.8777L1210.16 60.8326L1211.82 59.7587L1213.47 58.6569L1215.12 57.5281L1216.76 56.3733L1218.41 55.1937L1220.07 53.9906L1221.73 52.7656L1223.4 51.5205L1225.09 50.2571L1226.78 48.9776L1228.49 47.6842L1230.22 46.3796L1231.97 45.0664L1233.74 43.7476L1235.53 42.4262L1237.35 41.1054L1239.19 39.7887L1241.06 38.4795L1242.96 37.1814L1244.88 35.898L1246.83 34.6328L1248.81 33.3896L1250.82 32.1717L1252.86 30.9828L1254.93 29.8259L1257.03 28.7043L1259.16 27.6207L1261.31 26.5777L1263.49 25.5775L1265.7 24.6222L1267.93 23.7142L1270.19 22.8553L1272.47 22.0478L1274.77 21.2936L1277.09 20.5948L1279.43 19.9531L1281.79 19.3703L1284.16 18.8481L1286.55 18.388L1288.95 17.9915L1291.35 17.6597L1293.77 17.3938L1296.19 17.1947L1298.62 17.0633L1301.05 17L1303.48 17.0053L1305.91 17.0795L1308.34 17.2227L1310.76 17.4345L1313.17 17.7149L1315.58 18.0632L1317.97 18.4789L1320.35 18.961L1322.72 19.5086L1325.07 20.1206L1327.4 20.7956L1329.72 21.5323L1332.01 22.3291L1334.28 23.1843L1336.54 24.0963L1338.76 25.0632L1340.97 26.0831L1343.15 27.1541L1345.3 28.2743L1347.43 29.4417L1349.53 30.6544L1351.6 31.9102L1353.65 33.2074L1355.67 34.5439L1357.66 35.918L1359.62 37.3279L1361.56 38.7718L1363.47 40.2482L1365.35 41.7555L1367.2 43.2922L1369.02 44.857L1370.81 46.4488L1372.58 48.0663L1374.32 49.7089L1376.03 51.3758L1377.71 53.0668L1379.36 54.7816L1380.98 56.5202L1382.57 58.2828L1384.13 60.0696L1385.65 61.881L1387.14 63.7173L1388.59 65.579L1390 67.4665L1391.37 69.3803L1392.7 71.3207L1393.98 73.2879L1395.22 75.2821L1396.41 77.3034L1397.55 79.3516L1398.63 81.4264L1399.67 83.5273L1400.64 85.6537L1401.56 87.8046L1402.42 89.9788L1403.23 92.175L1403.97 94.3915L1404.65 96.6265L1405.28 98.8779L1405.84 101.143L1406.35 103.421L1406.8 105.707L1407.2 108.001L1407.54 110.299L1407.83 112.6L1408.07 114.9L1408.26 117.199L1408.4 119.493L1408.5 121.781L1408.56 124.061L1408.58 126.33L1408.56 128.587L1408.51 130.831L1408.43 133.059L1408.33 135.27L1408.2 137.464L1408.05 139.639L1407.88 141.793L1407.71 143.928L1407.52 146.04L1407.33 148.132L1407.14 150.201L1406.95 152.249L1406.76 154.275L1406.58 156.28L1406.41 158.264L1406.26 160.228L1406.13 162.173L1406.02 164.1L1405.93 166.011L1405.87 167.906L1405.83 169.788L1405.83 171.658L1405.86 173.518L1405.93 175.369L1406.03 177.215L1406.16 179.056L1406.33 180.896L1406.55 182.736L1406.79 184.579L1407.08 186.426L1407.4 188.281" fill="#CD9703"/>
<path fill-rule="evenodd" clip-rule="evenodd" d="M306.011 340.124L305.921 341.613L305.883 343.102L305.898 344.592L305.964 346.086L306.082 347.586L306.25 349.094L306.466 350.612L306.729 352.14L307.037 353.683L307.388 355.24L307.778 356.814L308.206 358.405L308.668 360.016L309.163 361.647L309.686 363.3L310.235 364.975L310.808 366.673L311.401 368.396L312.011 370.142L312.636 371.914L313.271 373.712L313.916 375.534L314.565 377.383L315.218 379.257L315.869 381.157L316.517 383.083L317.159 385.033L317.792 387.008L318.413 389.007L319.02 391.03L319.609 393.076L320.179 395.144L320.726 397.233L321.249 399.342L321.746 401.47L322.214 403.617L322.652 405.781L323.057 407.961L323.429 410.157L323.765 412.366L324.064 414.588L324.324 416.821L324.544 419.064L324.723 421.316L324.859 423.576L324.951 425.841L324.998 428.111L325 430.384L324.955 432.658L324.862 434.933L324.722 437.206L324.532 439.477L324.293 441.744L324.005 444.005L323.667 446.259L323.279 448.505L322.84 450.742L322.352 452.967L321.814 455.181L321.225 457.381L320.587 459.568L319.901 461.738L319.165 463.893L318.381 466.03L317.55 468.148L316.672 470.248L315.747 472.327L314.778 474.386L313.763 476.424L312.705 478.44L311.604 480.434L310.462 482.405L309.278 484.352L308.055 486.276L306.792 488.177L305.492 490.053L304.155 491.905L302.783 493.733L301.375 495.536L299.934 497.315L298.46 499.069L296.955 500.799L295.418 502.504L293.852 504.185L292.256 505.841L290.633 507.474L288.982 509.082L287.305 510.666L285.602 512.225L283.874 513.761L282.121 515.273L280.346 516.761L278.547 518.225L276.725 519.665L274.882 521.08L273.017 522.472L271.131 523.839L269.225 525.182L267.299 526.5L265.352 527.792L263.387 529.06L261.402 530.301L259.399 531.516L257.377 532.704L255.337 533.865L253.279 534.997L251.204 536.102L249.111 537.176L247.001 538.219L244.874 539.23L242.729 540.207L240.568 541.148L238.389 542.052L236.194 542.914L233.982 543.735L231.754 544.51L229.51 545.238L227.25 545.915L224.975 546.54L222.685 547.109L220.382 547.62L218.066 548.07L215.737 548.457L213.398 548.779L211.05 549.032L208.693 549.215L206.329 549.326L203.96 549.362L201.587 549.323L199.213 549.205L196.838 549.009L194.465 548.732L192.096 548.375L189.733 547.935L187.377 547.413L185.032 546.808L182.699 546.121L180.381 545.35L178.079 544.497L175.796 543.562L173.533 542.546L171.294 541.45L169.08 540.275L166.893 539.023L164.735 537.695L162.608 536.293L160.515 534.819L158.455 533.277L156.433 531.667L154.448 529.993L152.502 528.258L150.597 526.466L148.733 524.618L146.913 522.719L145.136 520.771L143.403 518.78L141.715 516.748L140.073 514.679L138.476 512.577L136.925 510.446L135.419 508.291L133.959 506.115L132.544 503.922L131.173 501.717L129.846 499.503L128.561 497.284L127.318 495.065L126.116 492.85L124.952 490.642L123.826 488.445L122.736 486.262L121.68 484.098L120.656 481.956L119.663 479.838L118.698 477.749L117.758 475.69L116.843 473.666L115.948 471.678L115.073 469.728L114.214 467.82L113.37 465.954L112.537 464.134L111.713 462.359L110.896 460.632L110.084 458.953L109.273 457.324L108.462 455.745L107.647 454.217L106.828 452.739L106.002 451.311L105.166 449.934L104.319 448.607L103.46 447.328L102.585 446.098L101.694 444.914L100.785 443.776L99.8569 442.682L98.9087 441.631L97.9393 440.62L96.9479 439.647L95.9338 438.711L94.8967 437.809L93.8362 436.939L92.7524 436.097L91.6453 435.283L90.5153 434.492L89.3629 433.722L88.1889 432.971L86.9939 432.235L85.7792 431.511L84.5458 430.798L83.295 430.092L82.0282 429.39L80.747 428.689L79.4529 427.988L78.1477 427.284L76.833 426.575L75.5105 425.857L74.1822 425.13L72.8496 424.392L71.5147 423.64L70.179 422.873L68.8442 422.09L67.5118 421.29L66.1832 420.471L64.8596 419.633L63.5421 418.775L62.2318 417.897L60.9296 416.998L59.6366 416.078L58.3535 415.137L57.0815 414.175L55.8213 413.19L54.574 412.184L53.3404 411.155L52.1213 410.105L50.9178 409.032L49.7305 407.938L48.5604 406.821L47.4082 405.683L46.2749 404.523L45.1612 403.341L44.0679 402.137L42.9959 400.913L41.946 399.667L40.919 398.401L39.9158 397.114L38.9371 395.807L37.9838 394.481L37.0568 393.135L36.1569 391.769L35.285 390.386L34.4419 388.984L33.6286 387.564L32.8459 386.126L32.0948 384.672L31.3761 383.202L30.6908 381.716L30.0399 380.215L29.4241 378.699L28.8445 377.169L28.3021 375.626L27.7976 374.071L27.332 372.504L26.9062 370.926L26.5212 369.337L26.1776 367.74L25.8764 366.134L25.6184 364.52L25.4042 362.9L25.2347 361.274L25.1104 359.643L25.032 358.009L25 356.373L25.0149 354.735L25.077 353.097L25.1867 351.46L25.3442 349.825L25.5497 348.193L25.8032 346.566L26.1046 344.944L26.4537 343.329L26.8503 341.722L27.294 340.124L27.7842 338.536L28.3203 336.96L28.9016 335.397L29.5271 333.847L30.1957 332.312L30.9064 330.792L31.6579 329.289L32.4486 327.804L33.2772 326.337L34.1418 324.89L35.0408 323.462L35.9721 322.054L36.9339 320.668L37.9245 319.302L38.942 317.959L39.9849 316.637L41.0515 315.338L42.1403 314.062L43.2498 312.808L44.3784 311.578L45.5249 310.37L46.6876 309.186L47.8652 308.025L49.0562 306.887L50.2593 305.771L51.4731 304.679L52.6961 303.609L53.927 302.562L55.1644 301.537L56.4069 300.533L57.6531 299.551L58.9018 298.589L60.1515 297.648L61.4011 296.726L62.6493 295.824L63.8949 294.94L65.1368 294.074L66.374 293.225L67.6054 292.392L68.8299 291.575L70.0464 290.773L71.2538 289.984L72.451 289.208L73.6369 288.444L74.8103 287.691L75.9703 286.947L77.1156 286.212L78.2452 285.483L79.3581 284.76L80.4533 284.041L81.5297 283.324L82.5865 282.609L83.6227 281.894L84.6376 281.176L85.6304 280.455L86.6003 279.728L87.5469 278.994L88.4695 278.252L89.3677 277.499L90.2412 276.734L91.0897 275.955L91.913 275.161L92.711 274.349L93.4838 273.518L94.2316 272.667L94.9546 271.794L95.6531 270.897L96.3277 269.975L96.9788 269.026L97.6073 268.049L98.2138 267.043L98.7993 266.007L99.3648 264.939L99.9114 263.839L100.44 262.705L100.953 261.537L101.45 260.333L101.934 259.095L102.405 257.82L102.867 256.509L103.319 255.161L103.764 253.777L104.205 252.356L104.641 250.899L105.076 249.405L105.511 247.876L105.949 246.311L106.39 244.711L106.838 243.078L107.293 241.412L107.759 239.714L108.236 237.984L108.727 236.226L109.233 234.439L109.757 232.625L110.3 230.785L110.863 228.922L111.45 227.037L112.06 225.131L112.696 223.207L113.359 221.266L114.051 219.31L114.773 217.341L115.526 215.362L116.311 213.374L117.13 211.379L117.984 209.38L118.873 207.379L119.798 205.378L120.761 203.381L121.763 201.39L122.803 199.409L123.884 197.44L125.006 195.488L126.169 193.556L127.373 191.648L128.62 189.768L129.909 187.919L131.24 186.106L132.614 184.332L134.029 182.601L135.486 180.918L136.983 179.287L138.521 177.711L140.098 176.194L141.713 174.741L143.366 173.355L145.053 172.04L146.775 170.8L148.53 169.639L150.314 168.56L152.128 167.568L153.968 166.666L155.832 165.857L157.718 165.144L159.623 164.529L161.544 164.016L163.478 163.605L165.424 163.298L167.377 163.096L169.335 163L171.294 163.01L173.252 163.125L175.206 163.346L177.152 163.671L179.088 164.098L181.011 164.626L182.918 165.253L184.806 165.976L186.673 166.792L188.517 167.698L190.336 168.691L192.127 169.765L193.888 170.918L195.618 172.145L197.316 173.441L198.98 174.802L200.61 176.221L202.205 177.695L203.763 179.217L205.286 180.782L206.773 182.385L208.224 184.02L209.64 185.681L211.021 187.362L212.37 189.059L213.685 190.764L214.971 192.474L216.227 194.182L217.456 195.883L218.66 197.572L219.841 199.245L221.002 200.895L222.145 202.52L223.273 204.114L224.389 205.674L225.496 207.195L226.596 208.675L227.693 210.11L228.789 211.498L229.889 212.836L230.995 214.122L232.111 215.354L233.238 216.53L234.381 217.651L235.543 218.714L236.726 219.719L237.933 220.668L239.166 221.558L240.429 222.393L241.722 223.172L243.05 223.897L244.412 224.569L245.812 225.191L247.25 225.764L248.728 226.291L250.247 226.776L251.807 227.22L253.409 227.627L255.052 228.001L256.738 228.344L258.466 228.662L260.234 228.957L262.042 229.235L263.888 229.499L265.769 229.755L267.684 230.008L269.628 230.262L271.6 230.523L273.596 230.796L275.611 231.086L277.642 231.397L279.683 231.734L281.732 232.103L283.781 232.507L285.828 232.95L287.866 233.437L289.89 233.971L291.896 234.555L293.877 235.193L295.829 235.887L297.747 236.638L299.626 237.45L301.461 238.323L303.247 239.259L304.98 240.257L306.656 241.319L308.271 242.445L309.821 243.633L311.304 244.883L312.715 246.194L314.051 247.566L315.311 248.995L316.492 250.482L317.592 252.023L318.608 253.617L319.54 255.261L320.387 256.952L321.147 258.689L321.821 260.467L322.408 262.283L322.908 264.136L323.323 266.021L323.652 267.935L323.898 269.874L324.063 271.837L324.147 273.818L324.154 275.814L324.086 277.823L323.945 279.841L323.736 281.865L323.461 283.891L323.124 285.916L322.729 287.939L322.281 289.955L321.782 291.962L321.238 293.959L320.654 295.941L320.033 297.908L319.381 299.858L318.703 301.789L318.003 303.698L317.286 305.586L316.557 307.451L315.822 309.292L315.084 311.108L314.349 312.9L313.621 314.667L312.904 316.408L312.204 318.125L311.524 319.818L310.867 321.487L310.239 323.133L309.643 324.757L309.081 326.36L308.557 327.945L308.074 329.511L307.634 331.061L307.24 332.597L306.894 334.12L306.596 335.632L306.349 337.135L306.154 338.632L306.011 340.124Z" fill="url(#paint0_linear_0_1)"/>
</g>
<defs>
<linearGradient id="paint0_linear_0_1" x1="175" y1="163" x2="175" y2="549.362" gradientUnits="userSpaceOnUse">
<stop stop-color="#3D47BA"/>
<stop offset="1" stop-color="#3B12A8"/>
</linearGradient>
<clipPath id="clip0_0_1">
<rect width="1443" height="605" fill="white"/>
</clipPath>
</defs>
</svg>
